<svg width="36" height="36" viewBox="0 0 36 36" fill="none" xmlns="http://www.w3.org/2000/svg">
<path fill-rule="evenodd" clip-rule="evenodd" d="M11.018 6.02551C15.6588 5.51111 20.3422 5.51111 24.983 6.02551C27.5525 6.31351 29.6255 8.33701 29.927 10.9155C30.4775 15.6225 30.4775 20.3776 29.927 25.0845C29.6255 27.663 27.5525 29.6865 24.983 29.9745C20.3422 30.489 15.6588 30.489 11.018 29.9745C8.44849 29.6865 6.37549 27.663 6.07399 25.0845C5.52351 20.3781 5.52351 15.6235 6.07399 10.917C6.22649 9.66432 6.79756 8.49983 7.69464 7.61228C8.59172 6.72473 9.76223 6.16613 11.0165 6.02701M18.0005 10.5105C18.2989 10.5105 18.585 10.629 18.796 10.84C19.007 11.051 19.1255 11.3371 19.1255 11.6355V16.875H24.365C24.6634 16.875 24.9495 16.9935 25.1605 17.2045C25.3715 17.4155 25.49 17.7016 25.49 18C25.49 18.2984 25.3715 18.5845 25.1605 18.7955C24.9495 19.0065 24.6634 19.125 24.365 19.125H19.1255V24.3645C19.1255 24.6629 19.007 24.949 18.796 25.16C18.585 25.371 18.2989 25.4895 18.0005 25.4895C17.7021 25.4895 17.416 25.371 17.205 25.16C16.994 24.949 16.8755 24.6629 16.8755 24.3645V19.125H11.636C11.3376 19.125 11.0515 19.0065 10.8405 18.7955C10.6295 18.5845 10.511 18.2984 10.511 18C10.511 17.7016 10.6295 17.4155 10.8405 17.2045C11.0515 16.9935 11.3376 16.875 11.636 16.875H16.8755V11.6355C16.8755 11.3371 16.994 11.051 17.205 10.84C17.416 10.629 17.7021 10.5105 18.0005 10.5105Z" fill="black"/>
</svg>
