<svg width="40" height="40" viewBox="0 0 40 40" fill="none" xmlns="http://www.w3.org/2000/svg">
<path fill-rule="evenodd" clip-rule="evenodd" d="M20.9997 19.1717L27.4847 25.6567L26.0713 27.0717L18.9997 20V10H20.9997V19.1717ZM19.9997 36.6667C10.7947 36.6667 3.33301 29.205 3.33301 20C3.33301 10.795 10.7947 3.33337 19.9997 3.33337C29.2047 3.33337 36.6663 10.795 36.6663 20C36.6663 29.205 29.2047 36.6667 19.9997 36.6667ZM19.9997 34.6667C23.8895 34.6667 27.62 33.1215 30.3706 30.3709C33.1211 27.6204 34.6663 23.8899 34.6663 20C34.6663 16.1102 33.1211 12.3797 30.3706 9.62914C27.62 6.87861 23.8895 5.33337 19.9997 5.33337C16.1098 5.33337 12.3793 6.87861 9.62877 9.62914C6.87824 12.3797 5.33301 16.1102 5.33301 20C5.33301 23.8899 6.87824 27.6204 9.62877 30.3709C12.3793 33.1215 16.1098 34.6667 19.9997 34.6667Z" fill="#545454"/>
</svg>
