<svg width="34" height="34" viewBox="0 0 34 34" fill="none" xmlns="http://www.w3.org/2000/svg">
<path d="M0.333008 28.6667C0.333008 31.5 2.49967 33.6667 5.33301 33.6667H28.6663C31.4997 33.6667 33.6663 31.5 33.6663 28.6667V15.3334H0.333008V28.6667ZM28.6663 3.66671H25.333V2.00004C25.333 1.00004 24.6663 0.333374 23.6663 0.333374C22.6663 0.333374 21.9997 1.00004 21.9997 2.00004V3.66671H11.9997V2.00004C11.9997 1.00004 11.333 0.333374 10.333 0.333374C9.33301 0.333374 8.66634 1.00004 8.66634 2.00004V3.66671H5.33301C2.49967 3.66671 0.333008 5.83337 0.333008 8.66671V12H33.6663V8.66671C33.6663 5.83337 31.4997 3.66671 28.6663 3.66671Z" fill="#699BF7"/>
</svg>
