<svg width="28" height="34" viewBox="0 0 28 34" fill="none" xmlns="http://www.w3.org/2000/svg">
<path d="M14.0003 0.333374C7.00033 0.333374 0.666992 5.70004 0.666992 14C0.666992 19.3 4.75033 25.5334 12.9003 32.7167C13.5337 33.2667 14.4837 33.2667 15.117 32.7167C23.2503 25.5334 27.3337 19.3 27.3337 14C27.3337 5.70004 21.0003 0.333374 14.0003 0.333374ZM14.0003 17C12.167 17 10.667 15.5 10.667 13.6667C10.667 11.8334 12.167 10.3334 14.0003 10.3334C15.8337 10.3334 17.3337 11.8334 17.3337 13.6667C17.3337 15.5 15.8337 17 14.0003 17Z" fill="#F24E1E"/>
</svg>
